<mxfile host="app.diagrams.net" modified="2024-02-19T15:36:38.235Z" agent="Mozilla/5.0 (Windows NT 10.0; Win64; x64) AppleWebKit/537.36 (KHTML, like Gecko) Chrome/96.0.4664.110 Safari/537.36 OPR/82.0.4227.44" etag="yrPG7479XCbpqnpga48D" version="23.1.5" type="github">
  <diagram name="PÃ¡gina-1" id="XRWX49vIvzLSB5t9minx">
    <mxGraphModel dx="993" dy="702" grid="1" gridSize="10" guides="1" tooltips="1" connect="1" arrows="1" fold="1" page="1" pageScale="1" pageWidth="827" pageHeight="1169" math="0" shadow="0">
      <root>
        <mxCell id="0" />
        <mxCell id="1" parent="0" />
        <mxCell id="IrCJk_Dz5uE3Cf6bxV_d-11" value="&lt;font style=&quot;font-size: 24px;&quot;&gt;ALUNO&lt;/font&gt;" style="rounded=0;whiteSpace=wrap;html=1;" vertex="1" parent="1">
          <mxGeometry x="364" y="480" width="120" height="60" as="geometry" />
        </mxCell>
        <mxCell id="IrCJk_Dz5uE3Cf6bxV_d-12" value="" style="endArrow=none;html=1;rounded=0;entryX=0;entryY=0;entryDx=0;entryDy=0;exitX=0.5;exitY=1;exitDx=0;exitDy=0;" edge="1" parent="1" source="IrCJk_Dz5uE3Cf6bxV_d-16" target="IrCJk_Dz5uE3Cf6bxV_d-11">
          <mxGeometry width="50" height="50" relative="1" as="geometry">
            <mxPoint x="330" y="410" as="sourcePoint" />
            <mxPoint x="450" y="540" as="targetPoint" />
          </mxGeometry>
        </mxCell>
        <mxCell id="IrCJk_Dz5uE3Cf6bxV_d-13" value="Nome" style="ellipse;whiteSpace=wrap;html=1;" vertex="1" parent="1">
          <mxGeometry x="180" y="485" width="100" height="50" as="geometry" />
        </mxCell>
        <mxCell id="IrCJk_Dz5uE3Cf6bxV_d-14" value="" style="endArrow=none;html=1;rounded=0;exitX=0.5;exitY=1;exitDx=0;exitDy=0;entryX=0.5;entryY=0;entryDx=0;entryDy=0;" edge="1" parent="1" source="IrCJk_Dz5uE3Cf6bxV_d-17" target="IrCJk_Dz5uE3Cf6bxV_d-11">
          <mxGeometry width="50" height="50" relative="1" as="geometry">
            <mxPoint x="484" y="410" as="sourcePoint" />
            <mxPoint x="450" y="540" as="targetPoint" />
          </mxGeometry>
        </mxCell>
        <mxCell id="IrCJk_Dz5uE3Cf6bxV_d-15" value="Attribute" style="ellipse;whiteSpace=wrap;html=1;align=center;dashed=1;" vertex="1" parent="1">
          <mxGeometry x="540" y="620" width="100" height="40" as="geometry" />
        </mxCell>
        <mxCell id="IrCJk_Dz5uE3Cf6bxV_d-16" value="&lt;span style=&quot;border-bottom: 1px dotted&quot;&gt;NumMeC&lt;/span&gt;" style="ellipse;whiteSpace=wrap;html=1;align=center;" vertex="1" parent="1">
          <mxGeometry x="210" y="360" width="100" height="40" as="geometry" />
        </mxCell>
        <mxCell id="IrCJk_Dz5uE3Cf6bxV_d-17" value="NumTelef" style="ellipse;shape=doubleEllipse;whiteSpace=wrap;html=1;" vertex="1" parent="1">
          <mxGeometry x="374" y="340" width="100" height="60" as="geometry" />
        </mxCell>
        <mxCell id="IrCJk_Dz5uE3Cf6bxV_d-18" value="" style="endArrow=none;html=1;rounded=0;exitX=1;exitY=0.5;exitDx=0;exitDy=0;entryX=0;entryY=0.5;entryDx=0;entryDy=0;" edge="1" parent="1" source="IrCJk_Dz5uE3Cf6bxV_d-13" target="IrCJk_Dz5uE3Cf6bxV_d-11">
          <mxGeometry width="50" height="50" relative="1" as="geometry">
            <mxPoint x="430" y="540" as="sourcePoint" />
            <mxPoint x="480" y="490" as="targetPoint" />
          </mxGeometry>
        </mxCell>
        <mxCell id="IrCJk_Dz5uE3Cf6bxV_d-19" value="" style="ellipse;whiteSpace=wrap;html=1;" vertex="1" parent="1">
          <mxGeometry x="190" y="590" width="100" height="50" as="geometry" />
        </mxCell>
        <mxCell id="IrCJk_Dz5uE3Cf6bxV_d-20" value="" style="endArrow=none;html=1;rounded=0;exitX=0;exitY=1;exitDx=0;exitDy=0;entryX=1;entryY=0.5;entryDx=0;entryDy=0;" edge="1" parent="1" source="IrCJk_Dz5uE3Cf6bxV_d-11" target="IrCJk_Dz5uE3Cf6bxV_d-19">
          <mxGeometry width="50" height="50" relative="1" as="geometry">
            <mxPoint x="430" y="540" as="sourcePoint" />
            <mxPoint x="480" y="490" as="targetPoint" />
          </mxGeometry>
        </mxCell>
      </root>
    </mxGraphModel>
  </diagram>
</mxfile>
